<svg aria-hidden="true" style="position: absolute; width: 0; height: 0; overflow: hidden;" version="1.1" xmlns="http://www.w3.org/2000/svg" xmlns:xlink="http://www.w3.org/1999/xlink">
<defs>
<symbol id="icon-Vector" viewBox="0 0 32 32">
<path d="M4.030 4.028c2.475-2.488 5.901-4.028 9.686-4.028 0.011 0 0.023 0 0.034 0h-0.002c3.673 0 7.127 1.431 9.724 4.028 2.49 2.475 4.031 5.902 4.031 9.689 0 0.012-0 0.025-0 0.037v-0.002c0 0.010 0 0.023 0 0.035 0 3.457-1.285 6.613-3.403 9.018l0.013-0.015 7.639 7.637c0.17 0.17 0.275 0.405 0.275 0.665 0 0.519-0.421 0.94-0.94 0.94-0.26 0-0.495-0.105-0.665-0.275l-7.634-7.637c-2.389 2.102-5.543 3.385-8.997 3.385-0.014 0-0.029-0-0.043-0h0.002c-0.010 0-0.023 0-0.035 0-3.786 0-7.212-1.54-9.686-4.027l-0.001-0.001c-2.49-2.475-4.031-5.902-4.031-9.689 0-0.012 0-0.025 0-0.037v0.002c0-3.673 1.431-7.127 4.030-9.724zM5.357 22.149c2.15 2.145 5.117 3.471 8.395 3.471s6.245-1.326 8.395-3.472l-0 0c2.146-2.15 3.473-5.118 3.473-8.396s-1.327-6.246-3.473-8.396l0 0c-2.142-2.145-5.104-3.473-8.375-3.473-0.006 0-0.012 0-0.018 0h0.001c-0.006 0-0.014-0-0.021-0-3.27 0-6.231 1.326-8.373 3.47l-0 0c-2.147 2.15-3.474 5.119-3.474 8.397s1.327 6.247 3.474 8.397l-0-0z"></path>
</symbol>
<symbol id="icon-Polygon" viewBox="0 0 52 32">
<path d="M26.006 32.009l-25.986-30.007h51.971l-25.986 30.007z"></path>
</symbol>
</defs>
</svg>